<svg width="41" height="44" viewBox="0 0 41 44" fill="none" xmlns="http://www.w3.org/2000/svg">
<path d="M39.1875 9.92005L22 0.515752C21.5408 0.262006 21.0247 0.128906 20.5 0.128906C19.9753 0.128906 19.4592 0.262006 19 0.515752L1.8125 9.92395C1.32166 10.1925 0.911921 10.5879 0.626078 11.0689C0.340235 11.5499 0.18877 12.0988 0.1875 12.6583V31.338C0.18877 31.8975 0.340235 32.4464 0.626078 32.9274C0.911921 33.4084 1.32166 33.8038 1.8125 34.0724L19 43.4806C19.4592 43.7343 19.9753 43.8674 20.5 43.8674C21.0247 43.8674 21.5408 43.7343 22 43.4806L39.1875 34.0724C39.6783 33.8038 40.0881 33.4084 40.3739 32.9274C40.6598 32.4464 40.8112 31.8975 40.8125 31.338V12.6603C40.8123 12.0998 40.6613 11.5496 40.3754 11.0675C40.0895 10.5854 39.6792 10.1891 39.1875 9.92005ZM20.5 3.25013L36.1914 11.8439L20.5 20.4376L4.80859 11.8439L20.5 3.25013ZM3.3125 14.5783L18.9375 23.129V39.8849L3.3125 31.34V14.5783ZM22.0625 39.8849V23.1368L37.6875 14.5783V31.3322L22.0625 39.8849Z" fill="#167D77"/>
</svg>
