<svg width="42" height="33" viewBox="0 0 42 33" fill="none" xmlns="http://www.w3.org/2000/svg">
<path d="M39.75 0.875H2.25C1.8356 0.875 1.43817 1.03962 1.14515 1.33265C0.85212 1.62567 0.6875 2.0231 0.6875 2.4375V29C0.6875 29.8288 1.01674 30.6237 1.60279 31.2097C2.18884 31.7958 2.9837 32.125 3.8125 32.125H38.1875C39.0163 32.125 39.8112 31.7958 40.3972 31.2097C40.9833 30.6237 41.3125 29.8288 41.3125 29V2.4375C41.3125 2.0231 41.1479 1.62567 40.8549 1.33265C40.5618 1.03962 40.1644 0.875 39.75 0.875ZM21 17.5059L6.26758 4H35.7324L21 17.5059ZM15.2793 16.5L3.8125 27.0098V5.99023L15.2793 16.5ZM17.5918 18.6191L19.9355 20.7773C20.2238 21.042 20.6009 21.1888 20.9922 21.1888C21.3835 21.1888 21.7606 21.042 22.0488 20.7773L24.3926 18.6191L35.7207 29H6.26758L17.5918 18.6191ZM26.7207 16.5L38.1875 5.98828V27.0117L26.7207 16.5Z" fill="#74A09C"/>
</svg>
