<svg width="41" height="45" viewBox="0 0 41 45" fill="none" xmlns="http://www.w3.org/2000/svg">
<path d="M34.9316 6.67578C33.0625 4.78785 30.8393 3.28714 28.3894 2.25958C25.9395 1.23203 23.311 0.697801 20.6543 0.6875H20.5C15.1128 0.6875 9.94623 2.82756 6.13689 6.63689C2.32756 10.4462 0.1875 15.6128 0.1875 21V31.9375C0.1875 33.1807 0.68136 34.373 1.56044 35.2521C2.43951 36.1311 3.6318 36.625 4.875 36.625H8C9.2432 36.625 10.4355 36.1311 11.3146 35.2521C12.1936 34.373 12.6875 33.1807 12.6875 31.9375V24.125C12.6875 22.8818 12.1936 21.6895 11.3146 20.8104C10.4355 19.9314 9.2432 19.4375 8 19.4375H3.38281C3.68415 16.1796 4.90788 13.075 6.9106 10.4877C8.91331 7.9004 11.612 5.93756 14.6904 4.82923C17.7688 3.7209 21.0994 3.513 24.2917 4.2299C27.4841 4.9468 30.4059 6.55879 32.7148 8.87695C35.5368 11.7136 37.2726 15.4513 37.6191 19.4375H33C31.7568 19.4375 30.5645 19.9314 29.6854 20.8104C28.8064 21.6895 28.3125 22.8818 28.3125 24.125V31.9375C28.3125 33.1807 28.8064 34.373 29.6854 35.2521C30.5645 36.1311 31.7568 36.625 33 36.625H37.6875C37.6875 37.8682 37.1936 39.0605 36.3146 39.9396C35.4355 40.8186 34.2432 41.3125 33 41.3125H22.0625C21.6481 41.3125 21.2507 41.4771 20.9576 41.7701C20.6646 42.0632 20.5 42.4606 20.5 42.875C20.5 43.2894 20.6646 43.6868 20.9576 43.9799C21.2507 44.2729 21.6481 44.4375 22.0625 44.4375H33C35.072 44.4375 37.0591 43.6144 38.5243 42.1493C39.9894 40.6841 40.8125 38.697 40.8125 36.625V21C40.8228 18.3429 40.3086 15.7099 39.2995 13.2519C38.2903 10.7938 36.806 8.55913 34.9316 6.67578ZM8 22.5625C8.4144 22.5625 8.81183 22.7271 9.10485 23.0201C9.39788 23.3132 9.5625 23.7106 9.5625 24.125V31.9375C9.5625 32.3519 9.39788 32.7493 9.10485 33.0424C8.81183 33.3354 8.4144 33.5 8 33.5H4.875C4.4606 33.5 4.06317 33.3354 3.77015 33.0424C3.47712 32.7493 3.3125 32.3519 3.3125 31.9375V22.5625H8ZM33 33.5C32.5856 33.5 32.1882 33.3354 31.8951 33.0424C31.6021 32.7493 31.4375 32.3519 31.4375 31.9375V24.125C31.4375 23.7106 31.6021 23.3132 31.8951 23.0201C32.1882 22.7271 32.5856 22.5625 33 22.5625H37.6875V33.5H33Z" fill="#167D77"/>
</svg>
