<svg width="40" height="40" viewBox="0 0 40 40" fill="none" xmlns="http://www.w3.org/2000/svg">
<path d="M37.4317 26.4488L28.2305 22.3258L28.2051 22.3141C27.7274 22.1098 27.2064 22.0278 26.689 22.0755C26.1717 22.1233 25.6744 22.2992 25.2422 22.5875C25.1913 22.6211 25.1424 22.6576 25.0957 22.6969L20.3418 26.7496C17.3301 25.2867 14.2207 22.2008 12.7578 19.2281L16.8164 14.4019C16.8555 14.3531 16.8926 14.3043 16.9278 14.2516C17.2098 13.8205 17.381 13.3264 17.426 12.8132C17.4709 12.3 17.3884 11.7837 17.1856 11.3102V11.2867L13.0508 2.06992C12.7827 1.45129 12.3217 0.935962 11.7367 0.600852C11.1517 0.265741 10.4739 0.128825 9.80471 0.210542C7.15816 0.558798 4.72888 1.85853 2.97059 3.86698C1.2123 5.87543 0.245233 8.45525 0.250018 11.1246C0.250018 26.6324 12.8672 39.2496 28.375 39.2496C31.0444 39.2544 33.6242 38.2873 35.6326 36.529C37.6411 34.7707 38.9408 32.3415 39.2891 29.6949C39.3709 29.0259 39.2343 28.3483 38.8996 27.7633C38.5648 27.1783 38.0499 26.7172 37.4317 26.4488ZM28.375 36.1246C21.7468 36.1174 15.3922 33.4811 10.7053 28.7943C6.0185 24.1074 3.38226 17.7528 3.37502 11.1246C3.36767 9.21736 4.0548 7.37264 5.3081 5.93497C6.56139 4.4973 8.29514 3.56497 10.1856 3.3121C10.1848 3.3199 10.1848 3.32775 10.1856 3.33554L14.2871 12.5152L10.25 17.3473C10.209 17.3943 10.1717 17.4446 10.1387 17.4977C9.84477 17.9487 9.67235 18.468 9.63813 19.0052C9.60391 19.5424 9.70906 20.0794 9.94338 20.5641C11.7129 24.1832 15.3594 27.8023 19.0176 29.5699C19.5058 29.802 20.0459 29.9036 20.5851 29.8645C21.1242 29.8255 21.6441 29.6473 22.0938 29.3473C22.144 29.3136 22.1923 29.2771 22.2383 29.2379L26.9863 25.1871L36.166 29.2984H36.1875C35.9377 31.1915 35.0068 32.9288 33.5689 34.1852C32.1309 35.4416 30.2845 36.131 28.375 36.1246Z" fill="#74A09C"/>
</svg>
