<svg width="41" height="38" viewBox="0 0 41 38" fill="none" xmlns="http://www.w3.org/2000/svg">
<path d="M40.8125 12.75C40.813 12.6047 40.7933 12.4601 40.7539 12.3203L37.9512 2.51562C37.7628 1.86507 37.369 1.2929 36.8287 0.884558C36.2883 0.476219 35.6304 0.253619 34.9531 0.25H6.04688C5.3696 0.253619 4.71167 0.476219 4.17132 0.884558C3.63098 1.2929 3.23721 1.86507 3.04883 2.51562L0.248047 12.3203C0.207977 12.46 0.187599 12.6047 0.1875 12.75V15.875C0.1875 17.0879 0.469883 18.284 1.01229 19.3689C1.55469 20.4537 2.34222 21.3973 3.3125 22.125V36.1875C3.3125 36.6019 3.47712 36.9993 3.77015 37.2924C4.06317 37.5854 4.4606 37.75 4.875 37.75H36.125C36.5394 37.75 36.9368 37.5854 37.2299 37.2924C37.5229 36.9993 37.6875 36.6019 37.6875 36.1875V22.125C38.6578 21.3973 39.4453 20.4537 39.9877 19.3689C40.5301 18.284 40.8125 17.0879 40.8125 15.875V12.75ZM6.04688 3.375H34.9531L37.1836 11.1875H3.82227L6.04688 3.375ZM15.8125 14.3125H25.1875V15.875C25.1875 17.1182 24.6936 18.3105 23.8146 19.1896C22.9355 20.0686 21.7432 20.5625 20.5 20.5625C19.2568 20.5625 18.0645 20.0686 17.1854 19.1896C16.3064 18.3105 15.8125 17.1182 15.8125 15.875V14.3125ZM12.6875 14.3125V15.875C12.6872 16.6811 12.4791 17.4734 12.0832 18.1756C11.6873 18.8777 11.117 19.4659 10.4275 19.8834C9.7379 20.3008 8.95235 20.5333 8.14668 20.5586C7.34101 20.5838 6.54245 20.4008 5.82812 20.0273C5.71928 19.943 5.59975 19.8734 5.47266 19.8203C4.81069 19.3965 4.26592 18.8131 3.88845 18.1237C3.51097 17.4343 3.31292 16.661 3.3125 15.875V14.3125H12.6875ZM34.5625 34.625H6.4375V23.5312C6.95188 23.6349 7.47528 23.6872 8 23.6875C9.21285 23.6875 10.409 23.4051 11.4939 22.8627C12.5787 22.3203 13.5223 21.5328 14.25 20.5625C14.9777 21.5328 15.9213 22.3203 17.0061 22.8627C18.091 23.4051 19.2871 23.6875 20.5 23.6875C21.7129 23.6875 22.909 23.4051 23.9939 22.8627C25.0787 22.3203 26.0223 21.5328 26.75 20.5625C27.4777 21.5328 28.4213 22.3203 29.5061 22.8627C30.591 23.4051 31.7871 23.6875 33 23.6875C33.5247 23.6872 34.0481 23.6349 34.5625 23.5312V34.625ZM35.5254 19.8203C35.3998 19.8731 35.2816 19.942 35.1738 20.0254C34.4596 20.3993 33.661 20.5826 32.8552 20.5577C32.0494 20.5328 31.2637 20.3005 30.5739 19.8832C29.8841 19.466 29.3136 18.8779 28.9174 18.1757C28.5213 17.4736 28.3129 16.6812 28.3125 15.875V14.3125H37.6875V15.875C37.6869 16.6612 37.4885 17.4346 37.1107 18.124C36.7329 18.8134 36.1877 19.3968 35.5254 19.8203Z" fill="#167D77"/>
</svg>
