<svg width="18" height="10" viewBox="0 0 18 10" fill="none" xmlns="http://www.w3.org/2000/svg">
<path d="M17.031 9.53024C16.9614 9.59997 16.8787 9.65529 16.7876 9.69303C16.6966 9.73078 16.599 9.7502 16.5004 9.7502C16.4019 9.7502 16.3043 9.73078 16.2132 9.69303C16.1222 9.65529 16.0394 9.59997 15.9698 9.53024L9.00042 2.55993L2.03104 9.53024C1.89031 9.67097 1.69944 9.75003 1.50042 9.75003C1.30139 9.75003 1.11052 9.67097 0.969792 9.53024C0.829062 9.38951 0.75 9.19864 0.75 8.99961C0.75 8.80059 0.829062 8.60972 0.969792 8.46899L8.46979 0.968988C8.53945 0.899256 8.62216 0.843937 8.71321 0.806194C8.80426 0.768451 8.90186 0.749023 9.00042 0.749023C9.09898 0.749023 9.19657 0.768451 9.28762 0.806194C9.37867 0.843937 9.46139 0.899256 9.53104 0.968988L17.031 8.46899C17.1008 8.53864 17.1561 8.62136 17.1938 8.71241C17.2316 8.80346 17.251 8.90105 17.251 8.99961C17.251 9.09818 17.2316 9.19577 17.1938 9.28682C17.1561 9.37787 17.1008 9.46058 17.031 9.53024Z" fill="#282828"/>
</svg>
