<svg width="48" height="34" viewBox="0 0 48 34" fill="none" xmlns="http://www.w3.org/2000/svg">
<path d="M47.3867 12.8516L44.6523 6.01562C44.4204 5.43725 44.0201 4.94185 43.5033 4.59362C42.9865 4.24538 42.3771 4.06035 41.7539 4.0625H35V2.5C35 2.0856 34.8354 1.68817 34.5424 1.39515C34.2493 1.10212 33.8519 0.9375 33.4375 0.9375H3.75C2.9212 0.9375 2.12634 1.26674 1.54029 1.85279C0.95424 2.43884 0.625 3.2337 0.625 4.0625V25.9375C0.625 26.7663 0.95424 27.5612 1.54029 28.1472C2.12634 28.7333 2.9212 29.0625 3.75 29.0625H7.07031C7.41453 30.4069 8.19641 31.5985 9.29267 32.4494C10.3889 33.3004 11.7372 33.7623 13.125 33.7623C14.5128 33.7623 15.8611 33.3004 16.9573 32.4494C18.0536 31.5985 18.8355 30.4069 19.1797 29.0625H28.9453C29.2895 30.4069 30.0714 31.5985 31.1677 32.4494C32.2639 33.3004 33.6122 33.7623 35 33.7623C36.3878 33.7623 37.7361 33.3004 38.8323 32.4494C39.9286 31.5985 40.7105 30.4069 41.0547 29.0625H44.375C45.2038 29.0625 45.9987 28.7333 46.5847 28.1472C47.1708 27.5612 47.5 26.7663 47.5 25.9375V13.4375C47.5007 13.2367 47.4622 13.0376 47.3867 12.8516ZM35 7.1875H41.7539L43.6289 11.875H35V7.1875ZM3.75 4.0625H31.875V16.5625H3.75V4.0625ZM13.125 30.625C12.5069 30.625 11.9027 30.4417 11.3888 30.0983C10.8749 29.755 10.4744 29.2669 10.2379 28.6959C10.0014 28.1249 9.93947 27.4965 10.06 26.8903C10.1806 26.2842 10.4783 25.7273 10.9153 25.2903C11.3523 24.8533 11.9092 24.5556 12.5153 24.435C13.1215 24.3145 13.7499 24.3764 14.3209 24.6129C14.8919 24.8494 15.38 25.2499 15.7233 25.7638C16.0667 26.2777 16.25 26.8819 16.25 27.5C16.25 28.3288 15.9208 29.1237 15.3347 29.7097C14.7487 30.2958 13.9538 30.625 13.125 30.625ZM28.9453 25.9375H19.1797C18.8355 24.5931 18.0536 23.4015 16.9573 22.5506C15.8611 21.6996 14.5128 21.2377 13.125 21.2377C11.7372 21.2377 10.3889 21.6996 9.29267 22.5506C8.19641 23.4015 7.41453 24.5931 7.07031 25.9375H3.75V19.6875H31.875V22.0918C31.1564 22.507 30.5275 23.0607 30.0246 23.7209C29.5217 24.3811 29.1548 25.1345 28.9453 25.9375ZM35 30.625C34.3819 30.625 33.7777 30.4417 33.2638 30.0983C32.7499 29.755 32.3494 29.2669 32.1129 28.6959C31.8764 28.1249 31.8145 27.4965 31.935 26.8903C32.0556 26.2842 32.3533 25.7273 32.7903 25.2903C33.2273 24.8533 33.7842 24.5556 34.3903 24.435C34.9965 24.3145 35.6249 24.3764 36.1959 24.6129C36.7669 24.8494 37.255 25.2499 37.5983 25.7638C37.9417 26.2777 38.125 26.8819 38.125 27.5C38.125 28.3288 37.7958 29.1237 37.2097 29.7097C36.6237 30.2958 35.8288 30.625 35 30.625ZM44.375 25.9375H41.0547C40.7063 24.5964 39.923 23.4087 38.8273 22.5604C37.7317 21.7122 36.3856 21.2513 35 21.25V15H44.375V25.9375Z" fill="#167D77"/>
</svg>
